<svg xmlns="http://www.w3.org/2000/svg" viewBox="0 0 1000 1000">
  <circle cx="500" cy="500" r="480" fill="none" stroke="#1B1B1B" stroke-width="40"/>
  <circle cx="500" cy="500" r="380" fill="none" stroke="#1B1B1B" stroke-width="8"/>
  <path d="M500 120 V500 H880" fill="none" stroke="#1B1B1B" stroke-width="8"/>
  <path d="M500 500 V880" fill="none" stroke="#1B1B1B" stroke-width="8"/>
  <path d="M120 500 H500" fill="none" stroke="#1B1B1B" stroke-width="8"/>
  <path d="M500 120 A380 380 0 0 1 880 500 L500 500 Z" fill="#0066B1"/>
  <path d="M120 500 A380 380 0 0 1 500 120 L500 500 Z" fill="#fff"/>
  <path d="M500 880 A380 380 0 0 1 120 500 L500 500 Z" fill="#0066B1"/>
  <path d="M880 500 A380 380 0 0 1 500 880 L500 500 Z" fill="#fff"/>
  <text x="500" y="80" text-anchor="middle" font-family="Arial,sans-serif" font-weight="bold" font-size="90" fill="#1B1B1B">B M W</text>
</svg>