<?xml version="1.0" encoding="utf-8"?>
<!-- Generator: Adobe Illustrator 28.0.0, SVG Export Plug-In . SVG Version: 6.00 Build 0)  -->
<svg version="1.1" id="Слой_1" xmlns="http://www.w3.org/2000/svg" xmlns:xlink="http://www.w3.org/1999/xlink" x="0px" y="0px"
	 viewBox="0 0 1000 505.4" style="enable-background:new 0 0 1000 505.4;" xml:space="preserve">
<style type="text/css">
	.st0{fill:#1D1D1B;}
</style>
<path class="st0" d="M43.3,434.2c-4.1,0-5,1-5,4.9l0,46.7c0,4.1,1,5.1,5.1,5.1h58.7v14.5H31.6c-14.2,0-21.9-5-21.9-22.5l0-40.2
	c0-17.7,7.7-22.8,21.9-22.8H100l0,14.3L43.3,434.2z M198,419.9v33.6h-45.8v-33.6h-28.9v85.5h28.9v-38.2H198v38.2h28.8v-85.5H198z
	 M351.5,434.2l26.3,61.7c2,4.4,5.5,9.5,13,9.5h26.9c7.5,0,10-4.9,12-9.4c2-4.4,32.2-76.1,32.2-76.1h-21.9l-27.9,70
	c-0.5,1.2-1.1,1.4-3,1.3c-1.9,0-2.5-0.1-3-1.3l-27.7-70H270.7c-14.2,0-21.9,5-21.9,22.8v40.3c0,17.5,7.7,22.5,21.9,22.5h72.7v-14.5
	h-61c-4.1,0-5.1-1-5.1-5.1v-17.5h60.5v-14.1h-60.5v-15.2c0-3.9,0.9-4.9,5-4.9L351.5,434.2z M630.5,434c-4.2,0-5,1-5,4.9l0,47.1
	c0,4,0.9,5.1,4.9,5.1h36.8c4,0,4.9-1.1,4.9-5.1l0-47.1c0-3.9-0.9-4.9-5-4.9H630.5 M700.9,442.5v40.4c0,17.5-7.7,22.4-21.9,22.5
	h-60.1c-14.2,0-21.9-4.9-21.9-22.4v-40.4c0-17.7,7.8-22.7,21.9-22.7H679C693.1,419.9,700.9,424.8,700.9,442.5 M749.8,491v-71.1
	h-28.7v85.5h80.4V491H749.8z M829.7,419.9c-14.1,0-21.9,5-21.9,22.8v40.2c0,17.5,7.7,22.5,21.9,22.5h72.7V491h-61
	c-4.1,0-5.1-1-5.1-5.1v-17.5h60.3v-14.2h-60.3v-15.1c0-3.9,1-4.9,5.1-4.9l95.1-0.1v71.3h28.7v-71.3h32.9v-14.2H829.7z M549.2,477.6
	l-9.6-4.5l0-0.7l21,0c9.6,0,18.2-5.4,18.2-18.4v-14.7c0-14.2-7.3-19.4-18.2-19.4h-89.7v85.5h28.4v-71.5h47.4c2.6,0,3.3,0.8,3.4,2.3
	l0,21.4c-0.2,1.4-1.6,2.3-3.5,2.3h-39.3l0,13.1l39.7,32.5h39.5L549.2,477.6z M110,213.4L161.7,112h216.7V41.1h242.5V112H890
	l-51.7,101.4H620.9v70.9H378.4v-70.9H110z M662,0H337.3v70.9H93.4L0,254.5h337.3v70.9H662v-70.9h244.5L1000,70.9H662V0z"/>
</svg>
