<?xml version="1.0" encoding="utf-8"?>
<!-- Generator: Adobe Illustrator 28.0.0, SVG Export Plug-In . SVG Version: 6.00 Build 0)  -->
<svg version="1.1" id="Слой_1" xmlns="http://www.w3.org/2000/svg" xmlns:xlink="http://www.w3.org/1999/xlink" x="0px" y="0px"
	 viewBox="0 0 1000 148.1213226" enable-background="new 0 0 1000 148.1213226" xml:space="preserve">
<path d="M626.0540161,74.4708633v1.6058578v33.6483078c0,0.4232483-0.2241211,0.7593536-0.5166016,0.7718201
	c-10.2576294,0.2614136-32.9076538,0.3858795-55.7693481,0.2987518c-14.0855103-0.056015-27.2871094-0.1929626-36.3932495-0.6659851
	c-10.8550415-0.5539703-15.0564575-1.0332336-19.3636475-3.2988663c-4.711731-2.4772568-9.7907104-5.9939499-13.1580505-9.1932144
	c-2.8258057-2.6888809-3.6784973-5.1350098-3.8963623-10.4256287c-0.1307068-3.3237534-0.1680603-8.4525375-0.1805115-12.2866669
	c0.0124512-3.827919,0.0498047-8.9567108,0.1805115-12.2804604c0.217865-5.2906036,1.0705566-7.7367477,3.8963623-10.4256134
	c3.3673401-3.2054901,8.4463196-6.7159729,13.1580505-9.1932182c4.3071899-2.2656174,8.508606-2.7448845,19.3636475-3.305069
	c9.1061401-0.4668236,22.3077393-0.6037521,36.3932495-0.6597862c22.8616943-0.0871391,44.982666,0.0373459,55.2402344,0.2987633
	c0.2863159,0.0062218,0.5166016,0.3485565,0.5166016,0.7655907v14.6643372c0,0.4232483-0.2302856,0.7655716-0.5228271,0.7655716
	c-17.5524292-0.006218-49.3832397-0.0124359-57.0515137,0.02491c-9.49823,0.0373383-17.944519,0.1431503-24.8782959,0.392128
	c-4.6433105,0.1618195-6.5292969,0.6224289-9.1061401,1.9979782c-1.2323608,0.6535416-2.5145874,1.4813766-3.5913696,2.3714447
	c-2.2282715,1.8548279-2.701355,2.850708-2.850708,7.2512398c-0.0684814,1.9793167-0.0995483,5.1474686-0.0995483,7.3321838
	c0,2.1909332,0.0310669,5.3590775,0.0995483,7.3383865c0.149353,4.4005508,0.6224365,5.396431,2.850708,7.2450256
	c1.0767822,0.8963013,2.3590088,1.7179031,3.5913696,2.3776627c2.5768433,1.3693466,4.4628296,1.8299332,9.1061401,1.9979935
	c6.9337769,0.2489624,15.3800659,0.3547745,24.8782959,0.392128c9.9401245,0.0435715,18.0814819,0.0186691,24.9592896,0.0186691
	c0.7904663,0.0062256,0.9522705-0.4792633,0.9522705-1.1079102v-1.6307602c0-0.784256-0.2738647-1.5187149-0.734436-1.9419708
	L577.81604,75.479187c-0.329895-0.311203-0.3236694-1.0207748,0.0186768-1.3070831l1.4315186-1.2012863
	c1.4876709-1.2448425,2.1972046-1.5062637,3.871521-1.5124969c8.1288452-0.0311127,37.5197754-0.1493835,40.8373413-0.0560074
	C625.8423462,71.4583206,626.0540161,71.7570877,626.0540161,74.4708633 M784.2557983,94.5129547v15.0066757
	c0,0.4232483-0.2365112,0.7655792-0.5290527,0.7655792h-122.194519c-1.8797607,0-2.1224976-0.3485565-2.1224976-3.8341446
	V41.9118004c0-1.9481888,0.2427368-2.3029671,2.1224976-2.3029671h120.8687134c0.2926025,0,0.5291138,0.3485565,0.5291138,0.7718086
	V53.849926c0,0.4232407-0.2365112,0.7655792-0.5291138,0.7655792l-89.9465942,0.3610077
	c-1.8735962,0.006218-2.1100464,0.3485565-2.1100464,3.0623245v7.6931725c0,0.4232559,0.2364502,0.7655869,0.5289917,0.7655869
	l73.4586182,0.3796768c0.2926636,0,0.5291138,0.3423309,0.5291138,0.7655869v13.0771561
	c0,0.4232407-0.2364502,0.7655792-0.5291138,0.7718124l-73.4586182,0.3734512
	c-0.2925415,0.006218-0.5289917,0.3485565-0.5289917,0.7655792v7.6931763c0,2.7137756,0.2364502,3.0561142,2.1100464,3.0623322
	l91.2723999,0.3610077C784.0192871,93.7473755,784.2557983,94.0896988,784.2557983,94.5129547 M269.2798462,82.0146637
	c-0.1556091,4.5312424-0.6411133,5.5582504-2.9378357,7.4690933c-1.1079407,0.9149704-2.4274597,1.7676926-3.6972351,2.4461288
	c-2.6577759,1.4129105-4.5997009,1.8859558-9.3799744,2.0540009c-7.1516266,0.2551956-9.1683197,0.3672333-18.9528351,0.4045792
	c-9.7845154-0.0373459-11.8011627-0.1493835-18.9528351-0.4045792c-4.7802124-0.168045-6.7221832-0.6410904-9.3737335-2.0540009
	c-1.2759552-0.6784363-2.5955048-1.5311584-3.7034149-2.4461288c-2.2967377-1.9108429-2.7822418-2.937851-2.9378357-7.4690933
	c-0.0684814-2.0415649-0.0996094-5.3030701-0.105835-7.5562515c0.0062256-2.2531738,0.0373535-5.5209045,0.105835-7.5562439
	c0.1555939-4.5374641,0.641098-5.5644722,2.9378357-7.4690971c1.1079102-0.9211884,2.4274597-1.7676849,3.7034149-2.4461288
	c2.6515503-1.4129105,4.5935211-1.8859558,9.3737335-2.0602341c7.1516724-0.2551804,9.1683197-0.3610001,18.9528351-0.4045639
	c9.7845154,0.0435638,11.8012085,0.1493835,18.9528351,0.4045639c4.7802734,0.1742783,6.7221985,0.6473236,9.3799744,2.0602341
	c1.2697754,0.6784439,2.5892944,1.5249405,3.6972351,2.4461288c2.2967224,1.9046249,2.7822266,2.931633,2.9378357,7.4690971
	c0.074646,2.0353394,0.0995789,5.3030701,0.1058044,7.5562439C269.379425,76.7115936,269.3544922,79.9730988,269.2798462,82.0146637
	 M300.7683411,61.8045158c-0.2241211-5.4524536-1.1017151-7.9732666-4.0084534-10.7430573
	c-3.4731445-3.2988586-8.7014771-6.9213638-13.5563965-9.4733086c-4.4441528-2.334095-8.7637634-2.8258247-19.9487305-3.3984489
	c-9.3862-0.4854889-14.4340515-0.6286392-28.9427948-0.6846733c-14.5087128,0.0560341-19.5565948,0.1991844-28.9365387,0.6846733
	c-11.1912079,0.5726242-15.5108337,1.0643539-19.9487152,3.3984489c-4.8549347,2.5519447-10.0895233,6.1744499-13.556427,9.4733086
	c-2.9129486,2.7697906-3.7905884,5.2906036-4.0146484,10.7430573c-0.1369324,3.423336-0.1742859,8.7077293-0.1867218,12.6538963
	c0.0124359,3.9461823,0.0497894,9.2305679,0.1867218,12.6539154c0.2240601,5.4462204,1.1016998,7.9670334,4.0146484,10.736824
	c3.4669037,3.3050766,8.7014923,6.9213791,13.556427,9.47332c4.4378815,2.3340912,8.7575073,2.8258057,19.9487152,3.3984375
	c9.3799438,0.4854889,14.4278259,0.6286469,28.9365387,0.6846771c14.5087433-0.0560303,19.5565948-0.1991882,28.9427948-0.6846771
	c11.184967-0.5726318,15.5045776-1.0643463,19.9487305-3.3984375c4.8549194-2.5519409,10.083252-6.1682434,13.5563965-9.47332
	c2.9067383-2.7697906,3.7843323-5.2906036,4.0084534-10.736824c0.1369019-3.4233475,0.1742554-8.7077332,0.1867065-12.6539154
	C300.9425964,70.5122452,300.9052429,65.2278519,300.7683411,61.8045158 M102.5134506,81.6910019
	c-0.1556168,4.5810471-0.6473236,5.6142654-2.9689789,7.5437927c-1.120369,0.9274139-2.4523621,1.7863541-3.7345657,2.4710236
	c-2.6826477,1.425354-4.64328,1.9046173-9.4733047,2.0788956c-7.2201385,0.2551956-16.0025482,0.3672333-25.886673,0.4045792
	c-10.3384552,0.0497894-20.6520729,0.0186768-27.8099289,0.0186768c-0.3050079,0-0.5477638-0.3547897-0.5477638-0.7967072
	V74.0600662V54.7088585c0-0.4419098,0.2427559-0.7966995,0.5477638-0.7966995c7.157856,0,17.4714737-0.0248947,27.8099289,0.0186691
	c9.8841248,0.0435715,18.6665344,0.1493835,25.886673,0.4108047c4.8300247,0.1680527,6.790657,0.6473236,9.4733047,2.0726776
	c1.2822037,0.6846695,2.6141968,1.5436172,3.7345657,2.4710312c2.3216553,1.9295197,2.8133621,2.9627457,2.9689789,7.5437889
	c0.0746689,2.0602264,0.0995789,5.3528519,0.1057968,7.6309357
	C102.6130295,76.3381348,102.5881195,79.6307602,102.5134506,81.6910019 M134.3131409,61.2816734
	c-0.2240753-5.5022354-1.1141205-8.0479584-4.0519714-10.848877c-3.5042801-3.3299713-8.7886658-6.9898186-13.6933594-9.5666656
	c-4.4814758-2.3527565-8.8446732-2.850708-20.1416855-3.4295578c-9.4733047-0.4917297-23.2102356-0.6348801-37.8621521-0.6908913
	c-23.7890854-0.0933609-47.3540802,0.0373497-58.0286942,0.3112068C0.2365341,37.0631104,0,37.4178886,0,37.8535843v36.2064819
	v36.2064819c0,0.4356842,0.2365341,0.7904663,0.5352766,0.7966919c10.6746178,0.2738647,34.2396088,0.4045715,58.0286942,0.3112183
	c14.6519165-0.056015,28.3888474-0.199173,37.8621521-0.6846771c11.2970123-0.585083,15.6602097-1.0830231,20.1416855-3.4357834
	c4.9046936-2.5768433,10.1890793-6.2366943,13.6933594-9.5666733c2.937851-2.7946854,3.8278961-5.3404083,4.0519714-10.8488693
	c0.1369324-3.4544601,0.1804962-8.7948685,0.1867371-12.778389
	C134.4936371,70.0765381,134.4500732,64.7361298,134.3131409,61.2816734 M432.8905334,82.2636261
	c-0.1494141,4.4005508-0.6224365,5.396431-2.8569336,7.2450256c-1.0767822,0.8963013-2.3527527,1.7179031-3.5914307,2.3776627
	c-2.5767822,1.3693466-4.462738,1.8299332-9.0998535,1.9979935c-6.9400024,0.2489624-15.380127,0.3547745-24.884552,0.392128
	c-9.9338989,0.0435715-19.8491211,0.0186691-26.7269287,0.0186691c-0.2987366,0-0.5290527-0.3423309-0.5290527-0.7655869V74.9252396
	V56.3271675c0-0.4232407,0.2303162-0.7655792,0.5290527-0.7655792c6.8778076,0,16.7930298-0.0248947,26.7269287,0.0186768
	c9.504425,0.0373383,17.9445496,0.1431503,24.884552,0.392128c4.6371155,0.1618195,6.5230713,0.6224289,9.0998535,1.9979782
	c1.238678,0.6535416,2.5146484,1.4813766,3.5914307,2.3714447c2.2344971,1.8548279,2.7075195,2.850708,2.8569336,7.2512398
	c0.0684509,1.9793167,0.0933533,5.1474686,0.0995789,7.3321838
	C432.9838867,77.1161728,432.9589844,80.284317,432.8905334,82.2636261 M463.4516296,62.6447792
	c-0.2116699-5.2906036-1.0643921-7.7367477-3.8901672-10.4256134c-3.3673096-3.2054901-8.4463196-6.7159729-13.1643372-9.1932182
	c-4.3071899-2.2656174-8.5022888-2.7448845-19.3636475-3.305069c-9.1060486-0.4668236-22.3014832-0.6037521-36.3869629-0.6597862
	c-22.8678894-0.0871391-45.5179443,0.0373459-55.7755432,0.2987633c-0.2862854,0.0062218-0.5166016,0.3485565-0.5166016,0.7655907
	v34.7997932v34.7997894c0,0.4232483,0.2303162,0.7593536,0.5166016,0.7718201
	c10.2575989,0.2614136,32.9076538,0.3858795,55.7755432,0.2987518c14.0854797-0.056015,27.2809143-0.1929626,36.3869629-0.6659851
	c10.8613586-0.5539703,15.0564575-1.0332336,19.3636475-3.2988663c4.7180176-2.4772568,9.7970276-5.9939499,13.1643372-9.1932144
	c2.8257751-2.6888809,3.6784973-5.1350098,3.8901672-10.4256287c0.1369019-3.3237534,0.1742859-8.4525375,0.180481-12.2866669
	C463.6259155,71.0973206,463.5885315,65.9685287,463.4516296,62.6447792"/>
<path fill="#D91A15" d="M998.9215698,137.8066406c-17.2769775-12.792572-33.2267456-30.556572-46.1237183-51.3742752
	l-1.6620483-2.5793991l-10.9216919,6.5592651l0.1990967,0.4108734c5.7814331,11.9474106,8.4535522,19.2230225,6.0215454,23.4478531
	c-2.4428101,4.2453232-10.1624146,5.5999222-23.5542603,6.6148987l-0.4518433,0.0351334l-0.2683716,12.6539917l3.0927124,0.1473694
	c24.6365967,0.6460724,48.1420288,5.4427948,67.9710693,13.8719635l1.2267456,0.5250549l0.7280884-1.1194
	c0.793396-1.2296906,1.5097656-2.3920288,2.1900024-3.5543671c0.6734009-1.1525726,1.3311768-2.3480988,2.010437-3.6548767
	L1000,138.6020355L998.9215698,137.8066406z M950.6127319,116.7068939c3.3386841-5.7209396,1.0247192-13.3039703-4.1516113-24.42379
	l3.1220093-1.8747711c12.454895,19.7597885,27.7233887,36.8816147,44.1991577,49.564888
	c-0.2010498,0.3591461-0.4039917,0.7134094-0.6109009,1.0618134l-0.0019531,0.0039062
	c-0.2039795,0.3523254-0.4138184,0.7065887-0.62854,1.0647583c-19.3225708-7.7967682-41.9291382-12.3348694-65.4394531-13.1361084
	l0.0790405-3.6090164C939.494873,124.2362442,947.2838135,122.4288101,950.6127319,116.7068939z M909.5365601,120.8868332
	c-13.388916-1.0149765-21.1066284-2.3705521-23.5493774-6.6148987c-2.4310303-4.2248306,0.2410278-11.5004425,6.022522-23.4478531
	l0.1990967-0.4108734l-10.9197998-6.5592728l-1.6746826,2.586235
	c-12.8862915,20.8108749-28.8320923,38.5738983-46.1120605,51.3664703l-1.0793457,0.7953949l0.6216431,1.1886902
	c0.6694946,1.2843323,1.3272705,2.4798584,2.0094604,3.6558533c0.6480103,1.1096344,1.3643799,2.2729645,2.1900024,3.5533905
	l0.7192993,1.1213531l1.2345581-0.5270081c19.8319702-8.4291687,43.3344727-13.2258911,67.9778442-13.8719635l3.0878906-0.1483459
	l-0.2752075-12.6520386L909.5365601,120.8868332z M885.9627686,92.2782211
	c-5.1763306,11.1217728-7.4902954,18.7077332-4.1516113,24.4286728c3.3328247,5.7228928,11.1207886,7.5303268,23.4312744,8.6526566
	l0.0741577,3.603157c-23.5112915,0.8070984-46.1159668,5.3481293-65.4336548,13.1419678
	c-0.2156372-0.3601227-0.4274292-0.714386-0.6333618-1.0628052l-0.0643921-0.1112518
	c-0.1815186-0.3191376-0.3630371-0.6372833-0.5446167-0.9622803c16.4786987-12.6842422,31.74823-29.8050995,44.2001953-49.5600052
	L885.9627686,92.2782211z M932.9082642,77.2536774l0.258606,0.4040375l10.7021484-6.2699051l-1.3438721-2.7838593
	c-11.2115479-22.0576324-18.4208374-45.256134-20.848938-67.0892944l-0.1531982-1.3482563l-1.3029175-0.0653878
	c-2.7492065-0.1341913-5.2583008-0.1351672-8.0231323,0l-1.2931519,0.0653878l-0.1551514,1.3497204
	c-2.4262085,21.8146267-9.635437,45.0131264-20.8538208,67.0961304l-1.3477783,2.7750702l10.7109375,6.2703934l0.258606-0.4040375
	c7.0491943-10.993927,12.0410767-17.3594742,16.6962891-17.3594742
	C920.8671265,59.8942032,925.8590698,66.2597504,932.9082642,77.2536774z M894.7784424,69.4081268
	c10.5440063-21.1343994,17.5463257-43.41259,20.2692261-64.4825745c0.7816772-0.0136628,1.5458374-0.0136628,2.3295288,0
	c2.7141113,21.0524178,9.7164307,43.3306084,20.2692261,64.4825745l-3.0283203,1.7766876
	c-6.8062134-10.2741737-12.0313721-16.2112846-18.4052124-16.2112846c-6.3748169,0-11.5999756,5.9371109-18.4061279,16.2112846
	L894.7784424,69.4081268z"/>
</svg>
