<?xml version="1.0" encoding="utf-8"?>
<!-- Generator: Adobe Illustrator 28.0.0, SVG Export Plug-In . SVG Version: 6.00 Build 0)  -->
<svg version="1.1" id="Слой_1" xmlns="http://www.w3.org/2000/svg" xmlns:xlink="http://www.w3.org/1999/xlink" x="0px" y="0px"
	 viewBox="0 0 1000 173.4294281" enable-background="new 0 0 1000 173.4294281" xml:space="preserve">
<path fill="#D50000" d="M0,53.9395981v66.0248871c0,33.4294662,21.9017963,53.4649429,59.9943199,53.4649429h176.1547394
	c39.3993988,0,64.3901215-18.2718048,64.3901215-51.7445831V66.3703766H151.00914v39.7524948h93.0110931v11.7684174
	c0,11.5618057-6.9680634,14.7533798-16.1471558,14.7533798H73.0010834c-12.5940666,0-16.5771675-5.961525-16.5771675-15.261116
	V54.3011017c0-10.116581,6.1851997-13.4717064,12.9642372-13.4717064h231.1510315V0.0015752H59.4949875
	C20.5943985,0.0015752,0,21.7403412,0,53.9395981"/>
<polygon fill="#D50000" points="388.4241333,46.1697731 390.8409729,46.1697731 474.9139709,173.4278564 524.9636841,173.4278564 
	608.9768066,46.1697731 611.3936768,46.1697731 611.3936768,173.4278564 667.9814453,173.4278564 667.9814453,0 582.2397461,0 
	501.3155212,120.9691849 498.5537109,120.9691849 417.5265808,0 331.9739685,0 331.9739685,173.4278564 388.4241333,173.4278564 "/>
<path fill="#D50000" d="M759.2828979,173.427597H1000v-42.1782837H772.5133667
	c-12.5599365,0-16.5771484-5.927124-16.5771484-15.1576691v-60.458992c0-10.0218048,6.1594238-13.531826,12.9983521-13.531826H1000
	V0H758.7835693c-38.8832397,0-59.4093628,21.7471657-59.4093628,53.9380226v66.0246277
	C699.3742065,153.3923798,721.1646729,173.427597,759.2828979,173.427597"/>
</svg>
