<svg version="1.2" xmlns="http://www.w3.org/2000/svg" viewBox="0 0 987 486" width="987" height="486">
	<title>313424789_478161814341278_4403040809293527310_n-svg</title>
	<style>
		.s0 { fill: #ca171d } 
		.s1 { fill: #000000 } 
	</style>
	<g id="#ca171dff">
		<path id="Layer" class="s0" d="m767.7 6.6c40-9.8 82.8-8.8 122.2 3.6 17.8 5.7 35 13.8 50.3 24.6 17 11.7 31.7 27.1 41.5 45.3 1.5 3.6 4.5 7.2 2.8 11.3-3.2 1.8-6.9 1.3-10.4 1.3-28.7 0-57.4 0-86.2 0-3.6 0-6.7-2.3-8.9-5.1-13.4-17.2-35.4-26.8-57-26.5-20.3 0-40.5 8.7-53.8 24.1-15 16.3-20.2 41-12.4 61.8 3.1 8.5 8 16.3 14.4 22.8 13.7 14.6 33.9 22.4 53.8 21.9 19.4-0.2 38.8-8.3 52-22.7 3.2-3.6 6.3-8.8 11.9-8.7 12-0.9 24.1-0.2 36.1-0.4 17.3 0 34.7-0.1 52 0 3 0.6 7.3-0.2 8.9 3.1 1.1 2.2-0.3 4.6-1.2 6.6-8 15.8-19.5 29.8-33.2 40.9-15.1 12.5-32.5 22-50.9 28.9-45 16.5-95.3 17.7-141.2 4.2-20.6-6.2-40.4-15.5-57.6-28.4-15.1-11.5-28.6-25.6-37.4-42.5-11.9-21.9-15-48.6-8-72.7 6.8-23.6 22.5-43.9 41.6-59.1 20.5-16.6 45.2-27.6 70.7-34.3z"/>
		<path id="Layer" class="s0" d="m189.4 6.4c3.7-1.2 7.7-0.6 11.5-0.7 25.1 0 50.1 0 75.1 0 2.8 0.8 3.4 3.8 3.3 6.4q0 71.9 0 143.9c-0.1 7.3 0.3 14.6-0.7 21.9-1.7 14.1-7.3 27.6-16 38.7-0.3 0.3-1.1 0.9-1.5 1.1l-0.3 0.2-0.1 0.3c-0.7 2.5-3 3.9-4.7 5.8-14.9 15-36.1 23-57.1 23.3-34 0-68 0-101.9 0-12.7-0.1-25.6 0.8-37.9-2.8-33.2-9.1-59.3-41.7-58.2-76.5 0.4-6.8-1-13.8 0.9-20.4 27.4-0.7 54.9-0.1 82.3-0.3 2.2 0.2 5.6-0.9 6.4 2 1.5 7.6-0.1 15.4 0.9 23.1 2.2 11 12.5 19.5 23.6 19.9 7 0 14 0.2 21-0.4 10.3-0.1 20.7 0.1 31.1-0.2 11.4-0.7 21.5-11.2 21.4-22.7 0-52 0-104 0-156-0.1-2.3 0.3-4.5 0.9-6.6z"/>
		<path id="Layer" class="s0" d="m418.7 13.6c2.7-4.6 8-6.9 13.3-6.9 26.3 0.1 52.6-0.1 79 0.1 6.6-0.4 11 5.1 14 10.2 44.9 74.1 89.6 148.4 134.5 222.5 1.4 2.1 2.2 4.4 2.4 6.9-8.5 1.6-17.3 0.6-25.9 0.9-19 0-38-0.1-56.9 0-4.3-0.2-9.3-0.5-11.8-4.5-7-11.8-14.2-23.5-21-35.4-41.4-0.2-82.8-0.1-124.3-0.1-1.6 0-3.2-0.4-4.8-0.7 0.3-1.8 0.3-3.7 1.3-5.2q13.6-22.8 27-45.8c1.4-0.7 2.8-1.8 4.4-1.8 21.4 0 42.7 0.2 64-0.1-8.2-12.8-15.4-26.3-23.3-39.3-5.2-9.1-10.7-18-15.7-27.1-1.1-2-2.8-4.4-5.3-3.9-3.2 2-4.5 5.7-6.5 8.8-14 23.3-27.9 46.7-41.9 70-8 13.4-15.9 26.8-24 40-8.5 14.9-17.8 29.3-26.2 44.2-3.9 1.3-8 0.8-12 0.9-24.7 0-49.3 0-74 0-1.9 0-3.6-0.6-5.4-1.1-0.1-2.5-0.1-5.1 1.5-7.2 40.6-66.4 80.9-132.9 121.7-199.2 5.1-8.9 10.6-17.4 15.9-26.2z"/>
	</g>
	<path id="Layer" fill-rule="evenodd" class="s1" d="m260.8 217.9l0.3-0.2c-0.1 0.1-0.3 0.3-0.4 0.5zm20.7 94.8c18.5-2.5 37.9-1.9 55.3 5.4 13.2 5.3 24.5 14.7 33 26.1 9.5 12.9 14.3 28.9 15.3 44.8 1.2 22.2-2.8 45.6-16.4 63.7-7.7 10.5-18.1 18.9-29.8 24.4-13.1 5.9-27.6 8.4-41.9 8.1-16 0.3-32.4-3-46.4-11-7.4-3.9-13.7-9.6-19.4-15.6-11.3-12.4-18-28.7-19.8-45.4-1.9-18.9-0.1-38.6 7.9-55.9 6.3-13.2 16.2-24.8 28.7-32.4 10-6.6 21.7-10.4 33.5-12.2zm7.1 19.1c-17.9 2-34.3 13.1-43.3 28.6-9.1 15.4-10.9 34.2-8.5 51.7 2 15.5 9.3 30.6 21.6 40.6 9.1 7.7 20.7 11.9 32.6 12.8 15.2 1.2 31.3-1.6 44.1-10.4 11.5-7.9 19.3-20.6 22.4-34.1 3.3-14.1 3.2-28.9 0.4-43-2.9-14.5-10.6-28.3-22.9-36.7-13.4-9.2-30.5-11.5-46.4-9.5zm306.9-19.1c22.7-3.1 47.5-1.3 67.2 11.6 17.2 10.8 29.7 28.8 34.1 48.6 2.5 10.9 2.9 22.1 2.2 33.2-1.4 19.8-8.5 39.8-22.6 54.2-13.1 13.8-31.5 22.1-50.3 24.1-21 2.4-43.2 0.4-61.8-10.4-18.1-10.3-31.8-28.3-36.7-48.7-3.9-16-3.7-33-0.5-49.1 3.9-19.2 14.7-36.9 30.6-48.5 11-8.1 24.3-13 37.8-15zm1.3 20.1c-13.3 2.9-25.2 10.8-33.4 21.6-12.3 15.9-15.1 37-12.8 56.5 1.4 10.3 4.6 20.5 10.5 29.1 9.1 14.1 24.7 23.5 41.4 25.2 19.9 2.3 42-2.5 55.6-18.1 14.4-15.8 17.3-38.5 15.3-59-1.3-17.8-9-35.9-23.8-46.5-1.1 0.8-1.9 2-3.3 2.1 0.8-0.9 1.7-1.8 2.5-2.7-15.2-9.8-34.5-11.9-52-8.2zm-595.8-18.5c10.8-0.1 21.7 0 32.5-0.1 16 34.4 32.2 68.7 48.3 103 5.1 11 10.7 21.8 14.2 33.4 3-6.9 5.5-14 8.7-20.8 18.3-38.6 37.1-77 55.3-115.6 10.3 0.1 20.6 0 30.9 0.1q0.2 84.1 0 168.2-11.9-0.1-23.8 0c-0.2-32.8-0.1-65.7-0.1-98.6-0.2-15.4 0.6-30.8 1.8-46.2-1.8 6-3.2 12.2-6 17.9-20 42.3-40.2 84.6-60.3 126.9-4.5-0.1-9 0-13.5-0.1-19.8-41.3-39.4-82.7-59.3-124.1-3.4-6.4-4.7-13.6-6.7-20.5 1.7 34 0.7 68.1 1 102.2-0.1 14.1 0 28.3-0.1 42.5q-11.4 0-22.9 0c0-56.1-0.1-112.2 0-168.2zm390.7 0c43.3-0.1 86.5-0.1 129.8 0q-0.1 9.7 0 19.3c-17.6 0.3-35.2 0-52.8 0.2 0.1 49.5 0 99.1 0 148.7-8.1 0-16.2 0-24.2 0q0-74.4 0-148.8c-17.6 0.1-35.1 0-52.7 0.1-0.2-6.5 0-13-0.1-19.5zm332.7-0.1q22.3 0.1 44.6 0c9.4 0.1 18.8-0.5 28.1 1.2 11 1.9 22.1 6.2 29.9 14.5 5.2 5.1 8.6 11.9 10 19.1 2.5 12.8 0.5 27-7.7 37.4-8.1 10-20.3 15.2-32.4 18.5 10.3 3.5 17.4 12.2 23.4 20.9q19.4 28.3 38.7 56.6c-9.5 0.2-19 0-28.4 0.1-10.4-16.3-21.1-32.3-31.6-48.5-4.9-7.2-10.4-14.5-18.1-18.8-10.1-5.1-21.6-3.1-32.4-3.4 0 23.6 0 47.1 0 70.7q-12 0-24 0c0-56.1 0-112.2-0.1-168.3zm24.1 19.3c0.1 19.7-0.1 39.3 0 59 7.2 0 14.3 0 21.5 0 8.3 0.2 17.1 0 24.8-3.7 7.8-3.4 14.3-10 16.6-18.2 2.8-9.3 1.5-20.4-5.4-27.6-6.6-6.7-16.3-9-25.4-9.5-10.7-0.1-21.4 0-32.1 0zm145.8-7.5c15-10.3 33.8-12.9 51.7-12.1 11.2 0.4 22.8 1.2 33.3 5.7-0.1 7.8-0.1 15.6 0 23.4-8.3-5-17.6-8.1-27.1-9.3-11.3-1.4-23.2-1.7-34.1 2.2-6.3 2.4-12.6 6.4-15.4 12.9-3 7.3-1.4 16.5 4.3 22.3 3.9 4 9 6.7 14 9.4 17.1 9.3 36.4 15.2 51.4 28.2 7.7 6.6 13.4 15.9 14.4 26.1 0.8 9.5-1.1 19.5-6.8 27.4-6.3 8.8-16.3 14.1-26.4 17.2-21 6.1-43.5 4.8-64.5-0.5-4.4-1.2-8.8-2.6-12.7-5 0.1-8.1 0.1-16.2 0.1-24.2 16 11 36.1 16.1 55.5 14.7 8-0.6 16.3-2.2 22.9-7.2 7.5-5.9 9.5-17.2 5.6-25.7-2.7-5.5-7.4-9.5-12.3-12.8-18.3-10.7-39.3-16.7-56.2-29.9-6.8-5.1-12-12.5-14.1-20.7-1.6-5.5-1.2-11.3-0.9-16.9 0.5-0.1 1.5-0.2 2-0.2-0.5-0.1-1.4-0.2-1.8-0.2 2-10.2 8.4-19.2 17.1-24.8z"/>
</svg>