<?xml version="1.0" encoding="utf-8"?>
<!-- Generator: Adobe Illustrator 28.0.0, SVG Export Plug-In . SVG Version: 6.00 Build 0)  -->
<svg version="1.1" id="Слой_1" xmlns="http://www.w3.org/2000/svg" xmlns:xlink="http://www.w3.org/1999/xlink" x="0px" y="0px"
	 viewBox="0 0 1000 349.4623718" enable-background="new 0 0 1000 349.4623718" xml:space="preserve">
<path id="Morris_Garages" fill="#FF0025" d="M94.9820862,309.139801c-11.6487503,0-20.6093216,8.9605713-20.6093216,19.7132568
	s9.4085999,19.7132568,20.6093216,19.7132568h22.8494644c11.6487503,0,20.6093216-8.9605713,20.6093216-19.7132568
	s-8.9605713-19.7132568-20.6093216-19.7132568H94.9820862z M82.8853073,329.3010864
	c0-6.7204285,5.8243713-12.5448303,12.9928284-12.5448303h21.5053787c7.1684647,0,12.9928284,5.3763428,12.9928284,12.5448303
	s-5.8243637,12.5447998-12.9928284,12.5447998H95.8781433C88.7096863,341.3978882,82.8853149,336.0215149,82.8853073,329.3010864z
	 M298.8351135,309.139801v7.1684265h26.8817139v25.0895996h-26.8817139v7.168457h61.3799133v-7.168457h-26.4336853v-25.0895996
	h26.4336853v-7.1684265H298.8351135z M385.304657,309.139801c-6.7204285,0-12.0967407,5.3763123-12.0967407,11.6487427
	c0,6.2723999,5.3763123,11.6487122,12.0967407,11.6487122h36.7383423c2.6881714,0,4.4802856,1.7921448,4.4802856,4.4802856
	c0,2.2401428-1.7921143,4.4802856-4.4802856,4.4802856h-47.4910278v7.168457h48.3871155
	c6.7204285,0,12.0967407-5.3763123,12.0967407-11.6487427c0-6.2723999-5.3763123-11.6487122-12.0967407-11.6487122h-36.7383423
	c-2.6881714,0-4.4802856-2.2401428-4.4802856-4.4802856c0-2.6881714,1.7921143-4.4803162,4.4802856-4.4803162h47.4910278v-7.1684265
	H385.304657z M950.2688599,309.139801c-6.720459,0-12.0967407,5.3763123-12.0967407,11.6487427
	c0,6.2723999,5.3762817,11.6487122,12.0967407,11.6487122h36.7383423c2.6881714,0,4.4802856,1.7921448,4.4802856,4.4802856
	c0,2.2401428-1.7921143,4.4802856-4.4802856,4.4802856h-47.4910889v7.168457h48.387146
	c6.7203979,0,12.0967407-5.3763123,12.0967407-11.6487427c0-6.2723999-5.3763428-11.6487122-12.0967407-11.6487122H951.164917
	c-2.6882324,0-4.4802856-2.2401428-4.4802856-4.4802856c0-2.6881714,1.7920532-4.4803162,4.4802856-4.4803162h47.4910278v-7.1684265
	H950.2688599z M514.7849731,309.139801c-11.2006836,0-20.6092834,8.9605713-20.6092834,19.7132568
	s8.9605713,19.7132568,20.6092834,19.7132568h38.0824585c2.2401733,0,3.5842285-1.7921143,3.5842285-3.5842285v-16.5770569
	c0-1.7921143-1.7921143-3.5842285-3.5842285-3.5842285h-41.2186279v7.168457h36.7383423v8.9605713h-32.2580566
	c-7.168457,0-12.9928284-5.8244019-12.9928284-12.5448303s5.8243713-12.5447998,12.9928284-12.5447998h40.7706299v-6.7203979
	H514.7849731z M809.1398315,309.139801c-11.2007446,0-20.609375,8.9605713-20.609375,19.7132568
	s8.9605713,19.7132568,20.609375,19.7132568H847.22229c2.2401123,0,3.5842285-1.7921143,3.5842285-3.5842285v-16.5770569
	c0-1.7921143-1.7921143-3.5842285-3.5842285-3.5842285h-41.666687v7.168457h36.7383423v8.9605713h-32.2580566
	c-7.1685181,0-12.9927979-5.8244019-12.9927979-12.5448303s5.8243408-12.5447998,12.9927979-12.5447998h40.7706299v-6.7203979
	H809.1398315z M867.831604,309.139801c-1.7920532,0-3.5842285,1.7921143-3.5842285,3.5842285v32.2580566
	c0,1.7921143,1.7920532,3.5842285,3.5842285,3.5842285h55.555542v-7.1684265h-51.0752563v-8.9606018h51.0752563v-7.1684265
	h-51.0752563v-8.9605713h51.0752563v-7.1684875H867.831604z M149.1935425,309.139801v39.8745422h8.0645142v-15.6809998h27.7777863
	l15.2329865,16.1290283h11.6487274c-0.8960571-0.8960571-15.2329712-15.6809998-15.2329712-15.6809998h2.2401428
	c7.1684418,0,12.5447998-5.3763428,12.5447998-12.0967712s-5.376358-12.0967407-12.5447998-12.0967407h-49.7311859V309.139801z
	 M157.7061005,325.2688293v-8.9606018h40.7706146c2.6881714,0,4.9283142,1.3441162,4.9283142,4.4803162
	c0,3.1361694-2.6881714,4.4802856-4.9283142,4.4802856C198.4767151,325.2688293,157.7061157,325.2688293,157.7061005,325.2688293z
	 M225.358429,309.139801v39.8745422h8.5125427v-15.6809998h27.777771l15.2330017,16.1290283h11.6487427
	c-0.8960571-0.8960571-15.2330017-15.6809998-15.2330017-15.6809998h2.2401428
	c7.168457,0,12.5448303-5.3763428,12.5448303-12.0967712s-5.3763428-12.0967407-12.5447998-12.0967407H225.358429V309.139801z
	 M233.4229279,325.2688293v-8.9606018h40.7706146c2.6881714,0,4.9283142,1.3441162,4.9283142,4.4803162
	c0,3.1361694-2.6881714,4.4802856-4.9283142,4.4802856H233.4229279z M644.2651978,309.139801v39.8745422h8.5125122v-15.6809998
	h27.777771l15.2329102,16.1290283h11.6488037c-0.8960571-0.8960571-15.2329712-15.6809998-15.2329712-15.6809998h2.2401733
	c7.168457,0,12.5447998-5.3763428,12.5447998-12.0967712s-5.3763428-12.0967407-12.5447998-12.0967407h-50.1791992V309.139801z
	 M652.3297119,325.2688293v-8.9606018h40.7706299c2.6882324,0,4.9283447,1.3441162,4.9283447,4.4803162
	c0,3.1361694-2.6881714,4.4802856-4.9283447,4.4802856H652.3297119z M0,309.139801v39.8745422h8.5125446v-30.0179138
	l23.2974911,14.3369141c0.4480286,0,23.7455177-14.7849731,23.7455177-14.7849731v30.0179138H64.0681V309.139801h-7.1684608
	l-25.0896072,15.2329712L6.7204304,309.139801H0z M600.8064575,309.139801c-0.8959961,0-2.2401123,0.447998-2.6881714,1.3440857
	c0,0-31.3619995,37.6344299-31.8099976,38.5304565h10.3046265l4.4802856-5.3763123h39.4265137L625,349.0143433h10.3046875
	c-0.4480591-0.8960266-31.8100586-38.5304565-31.8100586-38.5304565c-0.4480591-0.8960266-1.3441162-1.3440857-2.6882324-1.3440857
	H600.8064575z M592.2939453,330.197113l8.5125122-10.7526855l8.5125732,10.3046875l5.3762817,6.7204285h-27.777771
	l0.8960571-0.8960571l4.4802856-5.3763428L592.2939453,330.197113z M750.4481201,309.139801
	c-0.8960571,0-2.2401733,0.447998-2.6882324,1.3440857c0,0-31.3619995,37.6344299-31.8100586,38.5304565h10.3046875
	l4.4802856-5.3763123h39.4265137l4.4802856,5.3763123h10.3046875c-0.4480591-0.8960266-31.8100586-38.5304565-31.8100586-38.5304565
	c-0.4480591-0.8960266-1.7920532-1.3440857-2.6881714-1.3440857H750.4481201z M741.9356079,330.197113l8.5125122-10.7526855
	l8.5125122,10.3046875l5.3763428,6.7204285h-27.777771l0.8960571-0.8960571l4.4802856-5.3763428L741.9356079,330.197113z"/>
<g id="Logo">
	<g>
		<path fill="#FF0025" d="M632.6164551,84.2293854c-0.4480591-3.1362-1.3440552-6.2723999-3.5842285-8.5125427
			c-5.3763428-6.2723999-17.4730835-19.7132568-34.0501709-36.7383461
			c-16.5770874-16.5770626-30.4660034-28.6738377-36.7383423-34.0501823
			c-2.2401733-2.2401435-5.3763428-3.1362009-8.5125732-3.5842295C542.1146851,0.8960574,524.6415405,0,499.9999695,0
			s-42.1147156,0.8960574-50.1791992,1.7921147c-3.1362,0.4480286-6.2723999,1.3440862-8.5125427,3.5842295
			c-6.2724304,5.3763452-19.7132874,17.4731178-36.7383423,34.0501823
			c-17.4731445,17.4731216-29.1218872,30.4659538-34.0501709,36.7383537c-2.2401428,2.2401428-3.1362,5.3763428-3.584259,8.5125427
			c-0.4480286,8.0645142-1.7921143,25.5376282-1.7921143,50.1792068s0.8960571,41.6666565,1.7921143,50.1792145
			c0.4480286,3.1362,1.3441162,6.2723999,3.584259,8.512558c5.3763123,6.2723999,17.0250854,19.2652283,34.0501709,36.7383423
			c16.5770264,16.5770721,30.4659424,28.6738586,36.7383423,34.0501709c2.2401428,2.2401428,5.3763123,2.6881714,8.5125427,3.1362
			c8.0645142,0.4480286,25.5376282,1.7921448,50.1791992,1.7921448s42.1147156-0.8960571,50.1791687-1.7921448
			c3.1362305-0.447998,6.2724609-0.8960571,8.5125732-3.1362c6.2723999-5.3763428,19.7132568-17.473114,36.7384033-34.0501709
			c17.4730835-17.473114,29.1218262-30.4659424,34.0501709-36.7383423c2.2401733-2.2401581,3.1361694-5.376358,3.5842285-8.512558
			c0.4480591-8.0645142,1.7921143-26.4337006,1.7921143-50.1792145S633.5125122,92.2938995,632.6164551,84.2293854z
			 M622.3118286,181.0036011c0,2.6881561-1.3441162,5.3763428-3.1362305,7.1684418
			c-4.4802856,5.376358-15.6809692,17.4731293-31.8100586,34.0501709
			c-16.1290283,16.1290283-28.2258301,26.8817291-34.0501709,31.8100281
			c-2.2401123,1.7921295-4.4802856,2.6881866-7.168457,3.1362152c-7.168457,0.4480286-23.2974854,1.7921143-46.5949707,1.7921143
			c-23.2975159,0-39.4265442-0.8960571-46.5950012-1.7921143c-2.6881409,0-5.3763123-1.3440857-7.1684265-3.1362152
			c-5.3763428-4.928299-18.3691711-16.1290131-34.0501709-31.8100281
			c-16.1290283-16.1290131-26.8817444-28.6738434-31.8100281-34.0501709c-1.7921448-2.2401428-2.6881714-4.4802856-3.1362-7.1684418
			c0.4480286-7.6165009-0.4480286-24.1935577-0.4480286-46.594986s0.8960571-39.4265289,1.7921143-46.594986
			c0-2.6881714,1.3441162-4.9283142,3.1362-7.168457c4.4802856-5.3763504,15.6809998-17.4731178,31.8100281-34.0501823
			c15.6809998-15.6810036,28.2258301-26.8817196,34.0501709-31.8100357c2.2401428-1.7921152,4.4802856-2.6881714,7.168457-3.1362009
			c7.168457-0.4480286,23.2974854-1.7921152,46.5950012-1.7921152c23.2974854,0,39.4265137,0.8960581,46.5949707,1.7921152
			c2.6881714,0,5.3763428,1.3440857,7.168457,3.1362009c5.3763428,4.9283161,18.3691406,16.1290321,34.0501709,31.8100357
			s26.8817139,28.2258034,31.8100586,34.0501823c1.7921143,2.2401428,2.6882324,4.4802856,3.1361694,7.168457
			c0.4480591,7.1684647,1.7921143,23.2975006,1.7921143,46.594986S622.7598267,173.3871002,622.3118286,181.0036011z"/>
		<path fill="#FF0025" d="M607.0788574,108.8709641c0-8.9605713-0.8960571-17.0250854-1.3441162-18.3691788
			c-0.4480591-0.8960571-1.3440552-1.7921066-1.7920532-2.6881714
			c-7.6165161-8.5125427-15.6810303-17.0250931-25.9857178-27.7777748
			c-20.609314-20.6093178-31.3619995-30.0179214-34.0501709-31.8100376
			c-2.2401123-0.4480286-5.8243408-0.4480286-15.6809692-0.8960552c-8.5125732-0.4480286-18.3691711-0.4480286-19.2652588-0.4480286
			v215.053772c0,0,23.7455444,0,34.946228-1.3440857c7.6165161-6.7204285,22.8494873-20.609314,33.6021118-31.3619995
			c11.6488037-11.6487427,21.5054321-22.4014435,24.1935425-25.0895996
			c0.8960571-1.3440857,3.5842285-3.5842285,4.4802856-5.3763428c0-1.3440857,0.4480591-2.6881714,0.4480591-5.376358
			c0.8960571-13.4408569,0.8960571-37.6343994,0.8960571-38.5304718h-37.1864014v18.8171997h17.9211426
			c0,0.4480286-0.4480591,15.2329865-0.8960571,17.9211578c-1.3440552,1.7921143-3.5842285,4.0322571-5.8243408,6.7204285
			c-2.6882324,3.1362-6.2723999,6.7204285-13.888916,14.7849426c-9.4085693,9.8566284-24.6415405,23.7455139-31.3619995,29.5698853
			V47.4910431c1.7921143,1.3440857,5.8244019,5.3763428,7.168457,6.2723999
			c8.0645142,7.6164856,16.5770264,15.6809998,23.7455444,22.8494644
			c10.3046265,10.7526855,20.1612549,21.5053787,20.609314,22.4014359c0,0.8960571,0.4480591,9.8566284,0.4480591,10.7526855
			C588.7097168,109.3190002,606.6308594,108.8709641,607.0788574,108.8709641 M463.7096863,241.0394287V80.1971359
			c0,0-0.4480286,0.8960571-0.4480286,1.3440781c-4.0322571,10.7526855-8.9605713,22.4014359-13.8888855,34.4982071
			c-5.8243713,15.6810074-11.6487427,31.8100204-16.1290283,43.4587784l-0.447998-0.4480133l-12.5448303-22.4014435
			l-8.9605713-15.6809998v20.6093292c0,17.0250854,0.8960266,30.9139709,1.3440857,45.6989136
			c0,1.7921143,0.8960571,12.5447998,0.8960571,12.5447998s-6.2723999-6.2724152-9.4085999-9.8566284
			c-5.8243713-6.2724152-7.6164856-8.512558-10.304657-11.6487427c-0.8960571-11.2007141-1.7921448-23.7455139-1.3441162-47.4910431
			c0-23.2974854,1.3441162-38.0824356,1.3441162-39.8745499c0-0.4480362,0-0.4480362,0.8960266-1.3440857
			c1.7921143-2.2401428,9.8566284-11.2007141,12.0967712-13.4408569c0.8960266-0.8960648,1.3440857-0.8960648,1.3440857-0.8960648
			s0.8960571,1.7921143,1.7921143,2.6881714c3.584259,5.3763504,9.8566284,16.5770645,16.1290283,26.8817215
			c3.584259,6.2723999,4.0322876,6.7204361,4.0322876,6.7204361s4.9282837-14.3369217,16.5770264-43.0107574
			c8.9605713-21.9534035,17.4731445-39.8745499,17.9211426-40.3225822c0.4480286,0,7.168457-0.4480286,14.3369141-0.4480286
			c7.168457-0.4480267,12.9928284-0.4480267,13.4408569,0v215.053772h-2.6881714
			c-11.6487122-0.8960571-23.2974548-1.7921143-25.9856567-1.7921143"/>
	</g>
</g>
</svg>
